<svg xmlns="http://www.w3.org/2000/svg" viewBox="0 0 140 140">
  <ellipse cx="70" cy="95" rx="40" ry="30" fill="#E8B46F"/>
  <circle cx="70" cy="55" r="32" fill="#F0C987"/>
  <ellipse cx="38" cy="52" rx="16" ry="22" fill="#D49B4E" transform="rotate(15 38 52)"/>
  <ellipse cx="102" cy="52" rx="16" ry="22" fill="#D49B4E" transform="rotate(-15 102 52)"/>
  <circle cx="58" cy="52" r="5" fill="#3D2B1F"/>
  <circle cx="82" cy="52" r="5" fill="#3D2B1F"/>
  <circle cx="59" cy="50" r="2" fill="white"/>
  <circle cx="83" cy="50" r="2" fill="white"/>
  <ellipse cx="70" cy="62" rx="8" ry="6" fill="#3D2B1F"/>
  <path d="M64 68 Q70 76 76 68" stroke="#3D2B1F" stroke-width="2" fill="none" stroke-linecap="round"/>
  <ellipse cx="70" cy="72" rx="5" ry="7" fill="#FF8CA3"/>
  <rect x="42" y="110" width="14" height="22" rx="6" fill="#E0A85F"/>
  <rect x="84" y="110" width="14" height="22" rx="6" fill="#E0A85F"/>
  <path d="M105 85 Q125 70 120 55" stroke="#E8B46F" stroke-width="10" stroke-linecap="round" fill="none"/>
</svg>
