<svg xmlns="http://www.w3.org/2000/svg" viewBox="0 0 140 140">
  <ellipse cx="70" cy="95" rx="38" ry="28" fill="#F5F0E8"/>
  <circle cx="70" cy="52" r="30" fill="#FAF7F2"/>
  <polygon points="40,45 30,10 55,30" fill="#EDE5D8"/>
  <polygon points="100,45 110,10 85,30" fill="#EDE5D8"/>
  <circle cx="58" cy="50" r="5" fill="#2C1810"/>
  <circle cx="82" cy="50" r="5" fill="#2C1810"/>
  <circle cx="59" cy="48" r="2" fill="white"/>
  <circle cx="83" cy="48" r="2" fill="white"/>
  <ellipse cx="70" cy="60" rx="7" ry="5" fill="#2C1810"/>
  <path d="M64 66 Q70 72 76 66" stroke="#2C1810" stroke-width="1.5" fill="none" stroke-linecap="round"/>
  <line x1="58" y1="62" x2="40" y2="58" stroke="#D5CEC0" stroke-width="1"/>
  <line x1="58" y1="64" x2="38" y2="66" stroke="#D5CEC0" stroke-width="1"/>
  <line x1="82" y1="62" x2="100" y2="58" stroke="#D5CEC0" stroke-width="1"/>
  <line x1="82" y1="64" x2="102" y2="66" stroke="#D5CEC0" stroke-width="1"/>
  <rect x="44" y="108" width="13" height="20" rx="5" fill="#F5F0E8"/>
  <rect x="83" y="108" width="13" height="20" rx="5" fill="#F5F0E8"/>
  <path d="M105 82 Q118 72 112 60" stroke="#F5F0E8" stroke-width="8" stroke-linecap="round" fill="none"/>
</svg>
